<?xml version="1.0" standalone="no"?>
<!DOCTYPE svg PUBLIC "-//W3C//DTD SVG 20010904//EN"
 "http://www.w3.org/TR/2001/REC-SVG-20010904/DTD/svg10.dtd">
<svg version="1.0" xmlns="http://www.w3.org/2000/svg"
 width="99.000000pt" height="99.000000pt" viewBox="0 0 99.000000 99.000000"
 preserveAspectRatio="xMidYMid meet">

<g transform="translate(0.000000,99.000000) scale(0.100000,-0.100000)"
fill="#000000" stroke="none">
<path d="M0 495 l0 -495 495 0 495 0 0 495 0 495 -495 0 -495 0 0 -495z m645
241 c84 -22 121 -36 123 -48 3 -17 -39 -33 -48 -17 -4 5 -47 14 -96 21 -111
14 -128 15 -131 6 -2 -5 9 -8 25 -9 34 -1 186 -20 190 -23 5 -6 32 -118 32
-136 0 -15 -7 -20 -25 -20 -29 0 -31 16 -13 85 7 24 9 47 5 51 -3 4 -50 -6
-103 -21 l-97 -27 -124 38 c-86 27 -123 44 -123 54 0 11 34 24 118 47 64 17
124 31 132 31 8 0 69 -14 135 -32z m-78 -142 c32 9 66 20 76 22 15 5 17 -3 17
-61 l0 -66 -37 -16 c-55 -24 -177 -23 -231 1 l-42 19 0 68 0 67 80 -26 c79
-26 79 -26 137 -8z m276 -94 c4 -4 -54 -36 -130 -72 -76 -36 -154 -74 -174
-83 l-36 -17 -148 62 c-91 38 -151 58 -157 52 -5 -5 -8 -24 -6 -43 3 -32 6
-34 161 -106 l159 -72 174 90 c96 50 174 86 174 81 0 -6 -78 -51 -174 -101
l-173 -91 -154 71 c-85 40 -162 78 -171 87 -19 16 -24 67 -9 90 7 13 124 72
141 72 5 0 10 -10 12 -22 2 -17 17 -29 58 -46 74 -31 188 -27 246 8 22 13 57
26 79 29 35 5 40 10 43 34 l3 28 37 -22 c20 -12 41 -25 45 -29z"/>
</g>
</svg>
